# xmcd
#
# Track frame offsets:
#	150
#	17332
#	37987
#	54160
#	66740
#	84922
#	110145
#	124045
#	146825
#	169670
#	211050
#	233305
#
# Disc length: 3400 seconds
#
# Revision: 1
# Processed by: cddbd v1.5.1PL2 Copyright (c) Steve Scherf et al.
# Submitted via: audiograbber 1.80.04
#
DISCID=960d460c
DTITLE=Mojo Madness - Another Night In North Beach
DYEAR=1997
DGENRE=Blues
TTITLE0=Too Late
TTITLE1=She's Tough
TTITLE2=Got A Mind To Travel
TTITLE3=I Just Want A Little Bit
TTITLE4=Dance Your Pants Off
TTITLE5=All Your Love
TTITLE6=Something
TTITLE7=The Thrill Is Gone
TTITLE8=Give Me Back My Wig
TTITLE9=Blues With A Feeling
TTITLE10=My Babe
TTITLE11=Mojo Madness
EXTD=
EXTT0=
EXTT1=
EXTT2=
EXTT3=
EXTT4=
EXTT5=
EXTT6=
EXTT7=
EXTT8=
EXTT9=
EXTT10=
EXTT11=
PLAYORDER=
